<svg xmlns="http://www.w3.org/2000/svg" viewBox="0 0 24 24" role="img" aria-labelledby="github-title">
  <title id="github-title">GitHub</title>
  <path fill="#FFFFFF" d="M12 .7C5.63.7.45 5.88.45 12.26c0 5.1 3.31 9.43 7.9 10.96.58.11.79-.25.79-.56v-2.23c-3.21.7-3.89-1.36-3.89-1.36-.53-1.34-1.28-1.69-1.28-1.69-1.05-.72.08-.7.08-.7 1.16.08 1.77 1.19 1.77 1.19 1.03 1.77 2.71 1.26 3.37.96.1-.75.4-1.26.73-1.55-2.56-.29-5.25-1.28-5.25-5.71 0-1.26.45-2.29 1.19-3.1-.12-.29-.52-1.47.11-3.06 0 0 .97-.31 3.18 1.18A11.06 11.06 0 0 1 12 6.2c.98 0 1.96.13 2.88.39 2.21-1.5 3.18-1.18 3.18-1.18.63 1.59.23 2.77.11 3.06.74.81 1.19 1.84 1.19 3.1 0 4.44-2.7 5.41-5.27 5.7.42.36.78 1.06.78 2.14v3.25c0 .31.21.67.8.56a11.58 11.58 0 0 0 7.89-10.96C23.56 5.88 18.38.7 12 .7Z"/>
</svg>
