<svg xmlns="http://www.w3.org/2000/svg" viewBox="0 0 24 24" role="img" aria-labelledby="google-title">
  <title id="google-title">Google</title>
  <path fill="#4285F4" d="M21.6 12.227c0-.709-.064-1.391-.182-2.045H12v3.868h5.382a4.6 4.6 0 0 1-1.996 3.018v2.51h3.232c1.891-1.741 2.982-4.305 2.982-7.351Z"/>
  <path fill="#34A853" d="M12 22c2.7 0 4.964-.895 6.618-2.423l-3.232-2.509c-.895.6-2.041.955-3.386.955-2.605 0-4.81-1.759-5.6-4.123H3.059v2.591A9.996 9.996 0 0 0 12 22Z"/>
  <path fill="#FBBC05" d="M6.4 13.9A6.014 6.014 0 0 1 6.086 12c0-.659.114-1.3.314-1.9V7.509H3.059A9.996 9.996 0 0 0 2 12c0 1.614.386 3.141 1.059 4.491L6.4 13.9Z"/>
  <path fill="#EA4335" d="M12 5.977c1.468 0 2.786.505 3.823 1.496l2.868-2.868C16.959 2.991 14.695 2 12 2a9.996 9.996 0 0 0-8.941 5.509L6.4 10.1c.79-2.364 2.995-4.123 5.6-4.123Z"/>
</svg>
