<svg
  xmlns="http://www.w3.org/2000/svg"
  viewBox="0 0 30 30"
  aria-hidden="true"
  focusable="false"
>
  <path
    class="gear"
    fill="currentColor"
    d="M15,20 C12.261,20 10.042,17.762 10.042,15 C10.042,12.238 12.261,10 15,10 C17.739,10 19.959,12.238 19.959,15 C19.959,17.762 17.739,20 15,20 Z
       M29.008,18.536 L26.685,17.184 C26.815,16.474 26.901,15.749 26.901,15
       C26.901,14.252 26.815,13.526 26.685,12.816 L29.008,11.464
       C29.957,10.912 30.281,9.688 29.733,8.732 L27.75,5.268
       C27.203,4.312 25.989,3.983 25.041,4.536 L22.694,5.901
       C21.598,4.961 20.352,4.192 18.967,3.697 L18.967,2
       C18.967,0.896 18.079,0 16.983,0 L13.017,0
       C11.921,0 11.033,0.896 11.033,2 L11.033,3.697
       C9.648,4.192 8.402,4.961 7.306,5.901 L4.959,4.536
       C4.011,3.983 2.797,4.312 2.25,5.268 L0.267,8.732
       C-0.281,9.688 0.044,10.912 0.992,11.464 L3.315,12.816
       C3.185,13.526 3.099,14.252 3.099,15
       C3.099,15.749 3.185,16.474 3.315,17.184 L0.992,18.536
       C0.044,19.088 -0.281,20.312 0.267,21.268 L2.25,24.732
       C2.797,25.688 4.011,26.017 4.959,25.464 L7.306,24.099
       C8.402,25.039 9.648,25.809 11.033,26.303 L11.033,28
       C11.033,29.104 11.921,30 13.017,30 L16.983,30
       C18.079,30 18.967,29.104 18.967,28 L18.967,26.303
       C20.352,25.809 21.598,25.039 22.694,24.099 L25.041,25.464
       C25.989,26.017 27.203,25.688 27.75,24.732 L29.733,21.268
       C30.281,20.312 29.957,19.088 29.008,18.536 Z
       M15,12 C13.357,12 12.025,13.344 12.025,15
       C12.025,16.657 13.357,18 15,18
       C16.643,18 17.975,16.657 17.975,15
       C17.975,13.344 16.643,12 15,12 Z"
  />
  <path
    class="gear-ring"
    fill-rule="evenodd"
    d="M15 9.6
       a5.4 5.4 0 1 0 0 10.8
       a5.4 5.4 0 1 0 0-10.8
       Z
       M15 12.5
       a2.5 2.5 0 1 0 0 5
       a2.5 2.5 0 1 0 0-5
       Z"
  />
</svg>